<?xml version="1.0" encoding="utf-8"?>
<!-- Generator: Adobe Illustrator 19.2.1, SVG Export Plug-In . SVG Version: 6.00 Build 0)  -->
<svg version="1.1" id="layer" xmlns="http://www.w3.org/2000/svg" xmlns:xlink="http://www.w3.org/1999/xlink" x="0px" y="0px"
	 viewBox="0 0 652 652" style="enable-background:new 0 0 652 652;" xml:space="preserve">
<style type="text/css">
	.st0{fill:#004A7E;}
	.st1{fill:#00A2E1;}
</style>
<path class="st0" d="M337.8,361c17,0,27.2,11,27.2,26c0,15-10.2,26-27.2,26c-17,0-27.2-11-27.2-26C310.6,372,320.8,361,337.8,361
	 M337.8,406.5c13.7,0,17-11.2,17-19.4c0-8.2-3.3-19.4-17-19.4c-13.7,0-17,11.2-17,19.4C320.8,395.3,324.1,406.5,337.8,406.5
	 M106.9,375.1c1.3-11.5,13.1-14.5,23.1-14.5c12.7,0,22,5.1,21.8,17.2l-0.4,23.8c-0.1,3.7,0,6.7,0.2,9.3h-8.4
	c-0.2-2.2-0.3-4.5-0.3-6.7h-0.2c-5.3,7.2-11.2,8.6-20.2,8.6c-11.6,0-19.5-6.8-19.4-15.8c0.2-10.2,7.6-15.5,23.9-16
	c6.8-0.2,11.5-0.2,15.7-0.2l0-1.4c0.1-9.3-5.3-12.2-14.2-12.2c-6.3,0-11.7,2.6-12.2,7.9H106.9z M142.7,387.3c-3,0-7.4,0-14.3,0.3
	c-9.3,0.4-15.5,2-15.6,9.1c-0.1,4.8,3.6,9.5,12.3,9.5c11.1,0,17.4-5,17.6-16.7L142.7,387.3z M197,395.3c-0.6,6.8-6.3,10.9-14.7,10.9
	c-11.4,0-17-9.1-16.8-19.4c0.2-12.9,8.2-19.6,17.9-19.6c7.5,0,12.9,3.7,13.6,10.7h9.5c-1.4-12.6-12-17.3-23.1-17.3
	c-16.6,0-27.2,9.8-27.4,26.1c-0.2,15.6,8.7,25.9,25.8,25.9c11.7,0,23.7-5.2,24.8-17.5H197z M212.8,375.1
	c1.3-11.5,13.1-14.5,23.1-14.5c12.7,0,22,5.1,21.8,17.2l-0.4,23.8c-0.1,3.7,0,6.7,0.2,9.3h-8.4c-0.2-2.2-0.3-4.5-0.3-6.7h-0.2
	c-5.3,7.2-11.2,8.6-20.2,8.6c-11.6,0-19.5-6.8-19.4-15.8c0.2-10.2,7.6-15.5,23.9-16c6.8-0.2,11.5-0.2,15.7-0.2l0-1.4
	c0.1-9.3-5.3-12.2-14.2-12.2c-6.3,0-11.7,2.6-12.2,7.9H212.8z M248.6,387.3c-3,0-7.4,0-14.3,0.3c-9.3,0.4-15.5,2-15.6,9.1
	c-0.1,4.8,3.6,9.5,12.3,9.5c11.1,0,17.4-5,17.6-16.7L248.6,387.3z M269.7,362.5h-10.2l-0.1,6.6h10.2l-0.5,28.5
	c-0.2,10.8,4.9,13.9,14,13.9c2.7,0,4.4-0.2,7.3-0.6l0.1-6.6c-2.6,0.4-3.9,0.6-5.6,0.6c-5.6,0-6.9-2.8-6.8-8l0.4-27.9h12.6l0.1-6.6
	h-12.6l0.2-21.8l-9,5.9L269.7,362.5z M296.5,362.5h9l-0.8,48.4h-9L296.5,362.5z M296.7,350.3l9-2.6l-0.2,8.8h-8.8L296.7,350.3z
	 M370,410.9h9l0.4-22.9c0.2-15.3,10-20.8,18.6-20.8c8.6,0,14.7,5.9,14.5,16.7l-0.4,27h9l0.4-27.5c0.2-15.1-9-22.8-21.9-22.8
	c-8.2,0-14.9,3-20.2,10.4h-0.2c0.1-3.4-0.1-6.2-0.2-8.6h-8.4c0.1,3.9,0.2,7.3,0.2,11L370,410.9z M425.2,397.1
	c0.5,11.3,10.8,15.6,23.1,15.6c17.4,0,25.6-5.3,25.8-15.6c0.1-7.2-4-11-12.5-12.7l-15.2-3c-6.8-1.4-9.7-3.5-9.7-6.9
	c0.1-4.4,5.8-7.3,13.9-7.3c6.9,0,12,1.7,13.2,7.8h8.7c-0.4-11.9-12.6-14.4-22.1-14.4c-12.7,0-22.4,4.4-22.6,15.1
	c-0.3,19.3,37,10.7,36.8,22c-0.1,5.1-5.1,8.4-15.2,8.4c-8.2,0-14-2.3-14.7-9.1H425.2z M460,313.8c0,0-1.8,21,17.3,29.1
	c19.3,8.2,37.6-14.4,31.3-25.1c-7.6-12.9-13.2-16-13.2-16s-2,15.2-12.6,21.4C477.2,326.4,466.6,326.7,460,313.8 M63.7,255.6
	c-34.2,10-41.1,29-41.6,30.3c0,0.7,0.1,1.4,0.3,2c3.8,9.8,31.9,5.5,36.1,2.4c2.5-1.9-8-6,0.8-23.1c3.1-6,13.6-13,27-14.4
	C78.3,252.6,70.5,253.7,63.7,255.6 M84.9,410.9l23.2-55.5c-3.6,0.7-7.1,1.3-10.5,1.7l-18.1,45.4L58,353.9c-5-1.4-9.3-3-12.4-4.4
	l27.7,61.4H84.9z M604.9,276.5c0,10.2-3.4,21.2-8.9,29c-17.1,24.4-43.6,76.9-43.6,90.5c0-13.6-25.5-65.7-42.5-88.7
	c-6.4-8.6-10-19.3-10-30.8c0-29,23.5-52.5,52.5-52.5C581.4,224,604.9,247.5,604.9,276.5 M552.4,248.1c-16.4,0-29.8,13.3-29.8,29.8
	c0,16.4,13.3,29.8,29.8,29.8c16.4,0,29.8-13.3,29.8-29.8C582.1,261.4,568.8,248.1,552.4,248.1"/>
<path class="st1" d="M496.2,389C496.2,388.9,496,389.5,496.2,389c0.3-1,1.2-2.5-0.2-2.7c-0.7-0.1-1.8,0.7-2.4,1
	c-2.3,1.4-4.4,3.2-6.4,5c-1.6,1.5-3.9,3.2-4.9,5.2c-1.3,2.5,4,2.2,5.5,2.3c2.4,0.2,6.2,0.4,7.7,2.7c1.4,2,0.4,5.1-0.5,7.1
	c-2.2,4.9-7.5,8.8-12.9,9.1c-2.5,0.1-5.8-1.1-5.9-4c-0.1-1.3,1.4-5.4,3.4-3.6c1.2,1-0.5,2.3,0,3.4c0.5,1,2.8,0.8,3.6,0.6
	c3.1-0.5,5.7-2.2,7.4-4.8c0.8-1.1,3.1-4.6,2-6c-0.6-0.8-2.9-0.8-3.7-0.9c-1.7-0.2-3.5-0.4-5.2-0.6c-2.2-0.3-5.5-0.7-5.5-3.6
	c0-2.7,2.4-5.6,4.2-7.4c2.3-2.4,5-4.5,7.8-6.2c2.2-1.4,5.3-3.1,8-2.6c3.1,0.6,2.9,4.6,1.5,6.8c-0.4,0.7-1,1.5-1.9,1.5
	C496.7,391.2,495.8,390.1,496.2,389 M503.4,399.1c0.1-0.9,1.2-1.2,2-1.5c1-0.4,2.1-0.6,3-0.8c1.5-0.4,1.8-1.6,1-2.6
	c-0.8-1.1-3.3,0.4-4.6,0.6c0.5-1.2,1.9-3.7,1.5-5c-0.3-1.4-1.8-1.4-2.8-0.6c-1,0.8-1.4,2.5-1.7,3.7c-0.2,0.8-0.3,2.2-0.9,2.9
	c-0.8,0.9-2.5,1.1-3.5,1.9c-0.7,0.6-1.3,1.4-1.2,2.3c0.3,2,2.4,0.7,3.5,0.1c-0.8,3.2-3.1,16.2,4.1,13c1.1-0.5,2.1-2.2,0.8-3
	c-1.5-0.9-2,2.1-2.6-0.6C501.3,406.5,502.5,402,503.4,399.1 M543.4,394.5c0.1-0.8,1.2-1.1,1.9-1.4c1-0.4,2-0.6,2.9-0.7
	c1.4-0.3,1.7-1.4,1-2.3c-0.8-0.9-3.2,0.3-4.4,0.5c0.4-1.1,1.8-3.3,1.5-4.5c-0.3-1.3-1.8-1.3-2.7-0.5c-0.9,0.8-1.3,2.3-1.7,3.3
	c-0.2,0.8-0.3,2-0.9,2.6c-0.8,0.8-2.4,1-3.4,1.7c-0.6,0.5-1.3,1.2-1.1,2.1c0.3,1.8,2.3,0.7,3.4,0.1c-0.8,2.9-3,14.4,4,11.7
	c1-0.4,2-2,0.8-2.7c-1.5-0.8-1.9,1.9-2.5-0.5C541.4,401.1,542.6,397,543.4,394.5 M523.9,406.4c0.9,0.9-0.2,2-1.3,2.4
	c-2.6,0.9-3.4-1.5-3.4-4.9c-1.4,2.7-10.8,12-11.9,5.6c-0.3-2.1,0.6-5.6,1.4-7.5c1-2.4,2.4-4.5,4.4-6.7c1.7-1.9,9.7-8.6,12.2-4.6
	c0.6,1,0.4,2.5-0.1,3.5c-0.3,0.6-0.4,0.8-0.5,1.4c-0.1,0.5-0.1,1-0.2,1.5c-0.2,0.6-2.9,8.5-2.5,8.9
	C522.5,406.7,523.2,405.7,523.9,406.4 M514.2,398.8c-1.9,2.3-5.1,8.9-3.7,9.4c1.4,0.6,9.4-9.7,10.1-11.3c0.6-1.2,1.4-2.6,1.2-3.6
	C521.8,392.3,517.3,395.2,514.2,398.8 M537.9,391.9c2.5-0.1,1.5-3.9-0.3-4.4c-2.6-0.7-4.6,2.2-5.8,4c0-2.2-2.3-2.3-3.3-0.7
	c-0.9,1.5-0.5,4.1-0.7,5.8c-0.2,2.3-0.5,4.6-1,6.8c-0.3,1.4-1.4,4.6,0.5,5.2c3.4,1.1,3-6.3,3.4-7.9c0.7-3.2,3-8.1,6-10
	C536.7,391.5,537.1,391.9,537.9,391.9 M583.4,389.8c-0.2-2.4-2.9-2.4-4.7-2.5c1-3.1,3.1-5.7,4.1-8.8c0.4-1.1,0.6-2.6-1-2.7
	c-1.5-0.1-2.4,1.6-3,2.7c-0.7,1.2-1.3,2.5-1.9,3.8c-0.6,1.3-1.1,2.7-1.8,4.6c-0.3,0.9-0.1,0.4-1.2,0.6c-1,0.2-2.1,0.2-3.1,0.4
	c-2,0.4-4,0.9-6,1.5c0.7-3.6,1.8-7.5,1.5-11.2c-0.1-1.7-1.5-3.5-3.1-1.7c-0.9,1-0.7,2.5-0.7,3.7c0,1.6-0.1,3.3-0.4,4.9
	c-0.2,1.5-0.4,5.1-1.6,5.8c-1.1,0.7-2.4,0.3-3.1,1.8c-1,2.1,1,2.7,2.7,2c-0.7,2.3-1.5,4.7-2.7,6.7c-0.3,0.5-1,1.9-1.8,2
	c-0.3,0-0.8-0.6-1.3-0.6c-2-0.1-1.8,2.6-0.5,3.4c1.8,1.1,3.9-0.3,5-1.7c2.7-3.1,3.1-7.3,4.9-10.8c0.7-1.3,2.3-1.4,3.7-1.8
	c2.1-0.6,4.3-1.1,6.5-1.1c-0.6,3.2-2.7,9.5,0.3,12.1c2.4,2.1,4.4-0.2,4.3-1.4c-0.1-1.2-0.4-1.5-1.5-1.3c-1.4,0.3,0.1,0.6-0.6,0
	c-0.3-0.3-0.1-1.7-0.1-2.1c0-1.9,0.2-3.8,0.7-5.6c0.3-1.2,0.1-1.8,1.2-1.8c0.9,0,1.2,0.2,1.4,0.4
	C579.1,393.9,583.6,392.7,583.4,389.8C583.4,389,583.5,390.6,583.4,389.8 M605,388.5c0.9-1.1,1.8-2.3,3-2.9c0,2.4,3.7,0.9,2.7-1.7
	c-1.5-4.1-6.3,0.3-7.6,2c0.1-2-1.9-2.5-3.1-1.1c-1.1,1.2-0.9,3.5-1.2,5c-0.4,2.2-0.8,4.4-1.4,6.5c-0.4,1.4-2,4.4-0.9,5.8
	c0.5,0.7,1.5,0.7,2.3,0.3c1.3-0.7,1.4-2.3,1.6-3.6C601,394.8,602.4,391.7,605,388.5 M619.3,393.1C619.6,393.3,619.1,393,619.3,393.1
	c2.6,1.4-3.6,7.1-4.6,7.9c-2.1,1.7-5.2,3-8,1.2c-5.5-3.5,1.7-13.7,4.4-16.1c2.6-2.3,6.8-4.4,9.1-2.4c1.6,1.4,0.2,4.8-0.9,6.2
	c-1.5,1.9-3.3,2.8-5.5,3.9c-0.7,0.3-2.5,0.7-3.2,0.7c-1.2,0.1-1.4-0.2-1.9,0.7c-0.4,0.8-0.8,3-0.1,3.9c1.3,1.8,3.5,0.8,5.3-0.7
	C616,396.5,617.7,392.2,619.3,393.1 M617.9,385.5c-0.4-0.3-2.2,0.2-3.9,1.8c-1.4,1.3-2.4,2.5-3.8,4.7
	C614.3,392,618.9,387,617.9,385.5 M595.8,393.6C596.1,393.7,595.6,393.4,595.8,393.6c2.6,1.4-3.6,7.1-4.6,7.9c-2.1,1.7-5.2,3-8,1.2
	c-5.5-3.5,1.7-13.7,4.4-16.1c2.6-2.3,6.8-4.4,9.1-2.4c1.6,1.4,0.2,4.8-0.9,6.2c-1.5,1.9-3.3,2.8-5.5,3.9c-0.7,0.3-2.5,0.7-3.2,0.7
	c-1.2,0.1-1.4-0.2-1.9,0.7c-0.4,0.8-0.8,3-0.1,3.9c1.3,1.8,3.5,0.8,5.3-0.7C592.5,396.9,594.2,392.7,595.8,393.6 M594.4,386
	c-0.4-0.3-2.2,0.2-3.9,1.8c-1.5,1.3-2.4,2.5-3.8,4.7C590.8,392.5,595.5,387.5,594.4,386 M610.7,404.3c-5.2,0-10.5,0.4-15.7,0.6
	c-6.5,0.3-13.1,0.7-19.6,1.2c-15.1,1.1-30.1,2.8-45.1,4.7c-8.8,1.1-17.6,2.3-26.4,3.9c-2.6,0.5-5.3,1-7.9,1.6c-1,0.2-2,0.5-3.1,0.8
	c-0.7,0.2-1.5,0.3-2.2,0.7c-1.2,0.7,0.9,1.1,1.3,1.2c1.3,0.1,2.4-0.1,3.7-0.3c2.2-0.4,4.3-0.8,6.5-1.1c3.9-0.7,7.8-1.3,11.7-1.9
	c6.9-1.1,13.8-1.6,20.7-2.5c10.8-1.4,21.6-2.6,32.5-3.3c8-0.5,16.1-0.8,24.2-0.8c6.6,0,13.2,0,19.7,0.4c2,0.1,4,0.3,6,0.6
	c1.2,0.2,2.9,0.8,4,0.2c1.7-1,1-3.2-0.2-4.1C618,404.3,613.8,404.3,610.7,404.3C609.6,404.3,621.2,404.3,610.7,404.3 M153.7,246.4
	c-22.8-26.2-80.1-28.4-110-2.4c-24.5,21.2-21.6,42-21.6,42s6.3-19.9,41.6-30.3c24.7-7.3,64.2-2.6,68.1,31.3
	c3.9,34.5-32.2,57.7-63.2,55.6l26.9-74.8c0,0-23.9,5-29,19.7c-1.7,4.8-9.1,26.2-17.4,50.1c-16.8-6.5-13.5,0.2-13.5,0.2
	s34.8,22.6,80.3,7.5C162.6,329.7,180.9,277.5,153.7,246.4 M508.9,328c0.1,0.1,0.1,0.3,0,0.5c-2.7,9.3-10.2,18.4-18.4,22.7
	c-19.1,9.9-55.3,3.9-56.6-28.8c1-26.4,14-45,12.4-44.9c-4.6,4-20.1,21.6-26.7,39.8c-5.2,14.2-2.2,21.9,0.8,28.6
	c-6,1-21.9,0.1-24-14.6c-1.2-8.3,3.6-19.7,6.4-26.8c3.5-9.1,12.8-27.5,12.2-28.4c-8,7.9-19.9,22.5-27.9,39.7
	c-5.9,12.8-5.9,25.4-3.2,30.4c-9.6,0.2-19-1.9-23.1-9.2c-4.2,6.8-18.8,11.5-27.3,8c-11.9-4.9-8.8-17.7-8.8-21.3
	c-3.4,4.9-17.2,25.1-32.5,22.1c-6.8-1.3-9.7-9.3-10.2-17c-0.1-1.5-0.2-3.3-0.2-5.2c-3.6,4.7-6.9,8.1-10,11.2
	c-12.1,12.3-32.8,15.6-41.2,8c-5-4.5-8.1-11.4-8.1-11.4s-7.3,4.9-10.7,6.9c-10.3,6.2-18.5,9.7-26,8.9c-8.1-0.3-13.3-5.2-14.5-13.1
	c-1.2-8,2.4-20.4,5.7-27.5c3.3-6.9,6.7-13.7,10-20.6c0.6-1.2,1.1-2.5,1.5-3.9c1.6-5.2-0.4-10.2-7.5-11.7c-2.4,4.4-6.7,14.4-8.9,18.4
	c-1.8,3.2-1.9,3.6-3.5,3.5l6.5-24.7c-1.4-1.5-2.7-2.3-3.2-3.5c-0.7-1.5-1.3-3.5-0.8-4.7c0.4-1,2.7-1.7,4.1-1.8c3.8-0.2,7.6,0,11.4,0
	c6.8,0.1,13.5,0.3,20.3,0.4c9.3,0.1,13.4,5.1,10.6,13.8c-2.2,6.8-5.8,13.1-8.4,19.7c-2.3,5.6-4.3,11.4-6.2,17.2
	c-3.4,11.5,3.2,17.7,8.3,16.5c3.5-0.8,6.9-2,9.9-3.3c-0.7-8.3,0.4-19.6,4.1-29.3c4.3-11.2,10.6-21.2,20.8-28.3
	c9.9-6.9,22.9-9,32.8-5.6c7.2,2.5,11.5,8.9,10,16.4c-2,9.8-8.5,17.5-16.4,23.8c-14.2,11.3-26.8,17.1-26.8,17.9
	c-0.9,12.6,7.7,15.4,15.7,13.6c6.9-1.6,14-6.9,17.8-12.4c4.8-6.8,7.1-12.9,11.4-20.1c4.1-7,5.6-9.4,10.2-16
	c7.4-10.8,20.2-20.1,33.5-23.4c11.5-2.9,22.6-2.1,33.6,0.6c1.1,0.3,2.3,0.7,3.3,1.2c2.2,1.1,2.4,2.6,0.9,4.4
	c-9.7,11.8-13.9,25.6-18.6,39.9c-3.9,17.6-4.3,30.4,7.1,30.9c-0.4-0.9-0.7-1.9-1-2.9c-3.2-14.2,18.6-51,24-69.5
	c0.9-4.2-2.9-5.8-1.5-6.6c5.6-0.1,14,2.2,18.6,7.2c4.1,4.5,4.2,9.9,1.9,15.2c-1.6,3.8-2.5,6.9-2.5,6.9s4.5-6.4,7.8-10.7
	c4.2-5.5,4.8-6.9,9.2-12.3c3.9-4.8,11.5-6.4,20-2.4c4.7,2.2,6.2,6.5,4.5,12.1c-0.8,2.7-1.9,6.1-1.9,6.1s7.3-8.4,11.4-13.6
	c2.9-3.8,5.8-7.6,11.4-8c4.9-0.3,9.3,0.5,12.4,4.4c2.9,3.6,2.4,7.6,0.6,11.5c-4.2,9.1-7.4,10.8-12.8,27.3
	c-1.9,5.9-2.1,10.9-2.2,13.5c0,0-1.8,21,17.3,29.1C491.5,348.9,505.2,338.3,508.9,328 M265.6,269.6c-8.4,9.6-16.9,26.5-20.1,39.2
	c17-9.9,28.2-25.3,30.7-34.9c0.8-2.6,1.9-7-0.9-8.1C272.2,264.2,267.5,267.4,265.6,269.6 M343.9,274.4c0.4-0.8,3.8-7.4,1.2-8.4
	c-2.7-1-6.9,3.2-8.5,5.2c-11.3,13-19.4,27.6-26.5,42.6c-2.3,4.9-7.5,17.1-3.7,18.2c0.9,0.3,2.5-0.1,3.4-0.6c1.5-0.9,2.9-2.2,4.2-3.5
	c7.3-7.5,12.2-16.2,16.4-25.3C335.4,291.4,338.7,285.6,343.9,274.4"/>
<path class="st0" d="M602.8,244.8l1.2-0.1c0.1,0.5,0.2,0.9,0.4,1.2c0.2,0.3,0.6,0.6,1,0.8c0.5,0.2,1,0.3,1.5,0.3
	c0.5,0,1-0.1,1.3-0.2c0.4-0.1,0.7-0.4,0.9-0.6c0.2-0.3,0.3-0.5,0.3-0.9c0-0.3-0.1-0.6-0.3-0.8c-0.2-0.2-0.5-0.4-0.9-0.6
	c-0.3-0.1-0.9-0.3-1.8-0.5c-0.9-0.2-1.6-0.4-1.9-0.6c-0.5-0.2-0.8-0.6-1.1-0.9c-0.2-0.4-0.4-0.8-0.4-1.2c0-0.5,0.1-1,0.4-1.4
	c0.3-0.4,0.7-0.8,1.3-1c0.6-0.2,1.2-0.3,1.8-0.3c0.7,0,1.4,0.1,2,0.4c0.6,0.2,1,0.6,1.3,1.1c0.3,0.5,0.5,1,0.5,1.6l-1.3,0.1
	c-0.1-0.6-0.3-1.1-0.7-1.4c-0.4-0.3-1-0.5-1.7-0.5c-0.8,0-1.4,0.1-1.7,0.4c-0.4,0.3-0.6,0.6-0.6,1.1c0,0.4,0.1,0.7,0.4,0.9
	c0.3,0.2,0.9,0.5,2,0.7c1.1,0.2,1.8,0.5,2.2,0.6c0.6,0.3,1,0.6,1.3,1c0.3,0.4,0.4,0.9,0.4,1.4c0,0.5-0.2,1-0.5,1.5
	c-0.3,0.5-0.7,0.8-1.3,1.1c-0.6,0.3-1.2,0.4-1.9,0.4c-0.9,0-1.7-0.1-2.3-0.4c-0.6-0.3-1.1-0.7-1.4-1.2
	C603,246.1,602.8,245.5,602.8,244.8 M613.7,248.1v-8.5l2.9,8.5h1.2l2.9-8.4v8.4h1.3v-10h-1.8l-2.4,7c-0.2,0.7-0.4,1.2-0.5,1.6
	c-0.1-0.3-0.3-0.8-0.5-1.5l-2.4-7.1h-2v10H613.7z"/>
</svg>
